<svg id="Layer_1" data-name="Layer 1" xmlns="http://www.w3.org/2000/svg" viewBox="0 0 650 265"><defs><style>.cls-1,.cls-2,.cls-3,.cls-4,.cls-6,.cls-8{fill:#fff;stroke-width:2.08px;}.cls-1,.cls-4,.cls-5{stroke:#580dba;}.cls-1,.cls-11,.cls-3,.cls-5,.cls-6,.cls-9{fill-rule:evenodd;}.cls-11,.cls-2,.cls-3{stroke:#f7567c;}.cls-5{fill:#580dba;}.cls-10,.cls-11,.cls-5,.cls-7,.cls-9{stroke-miterlimit:10;}.cls-10,.cls-6,.cls-7,.cls-8,.cls-9{stroke:#1c3a6b;}.cls-7,.cls-9{fill:#1c3a6b;}.cls-10{fill:#7510f7;}.cls-11{fill:#f7567c;}</style></defs><path id="Case" class="cls-1" d="M126,41.77a7.28,7.28,0,0,1,7.29-7.29H386.87a7.29,7.29,0,0,1,7.29,7.29V215.31a7.28,7.28,0,0,1-7.29,7.28H133.3a7.28,7.28,0,0,1-7.29-7.28Z"/><path id="Case-2" data-name="Case" class="cls-1" d="M142.41,53.74a3.13,3.13,0,0,1,3.13-3.13H374.37a3.12,3.12,0,0,1,3.13,3.13V183a3.13,3.13,0,0,1-3.13,3.13H145.54a3.13,3.13,0,0,1-3.13-3.13Z"/><path id="Case-3" data-name="Case" class="cls-1" d="M241,222.59h38.45l2.6,33.56H238.39Z"/><path id="Keyboard" class="cls-1" d="M222.33,263.44v-3.51a3.78,3.78,0,0,1,3.77-3.78h68.23a3.79,3.79,0,0,1,3.77,3.78v3.51a.26.26,0,0,1-.27.26H222.6A.27.27,0,0,1,222.33,263.44Z"/><rect id="Case-4" data-name="Case" class="cls-2" x="319.7" y="123.46" width="192.65" height="129.31" rx="6.24"/><path id="Keyboard-2" data-name="Keyboard" class="cls-3" d="M306.43,253v5.21a5.46,5.46,0,0,0,5.46,5.46H520.18a5.47,5.47,0,0,0,5.46-5.46V253a.25.25,0,0,0-.26-.26H306.68A.25.25,0,0,0,306.43,253Z"/><path id="Notch" class="cls-3" d="M430.43,252.89H401.27a8.06,8.06,0,0,0,7.54,5.2h14.08A8.06,8.06,0,0,0,430.43,252.89Z"/><rect id="Screen" class="cls-2" x="328.3" y="135.69" width="175.32" height="105.07" rx="2.08"/><ellipse id="Oval-6" class="cls-4" cx="227.47" cy="115.53" rx="9.8" ry="9.79"/><path id="Rectangle-11" class="cls-5" d="M253,99.77h40.51c1.44,0,2.61.9,2.61,2h0c0,1.11-1.17,2-2.61,2H253c-1.44,0-2.61-.89-2.61-2h0C250.34,100.67,251.51,99.77,253,99.77Z"/><path id="Rectangle-11-2" data-name="Rectangle-11" class="cls-5" d="M253,114.14h27.44c1.44,0,2.61.89,2.61,2h0c0,1.1-1.17,2-2.61,2H253c-1.44,0-2.61-.9-2.61-2h0C250.34,115,251.51,114.14,253,114.14Z"/><path id="Rectangle-11-3" data-name="Rectangle-11" class="cls-5" d="M253,128.5h14.37c1.45,0,2.62.9,2.62,2h0c0,1.1-1.17,2-2.62,2H253c-1.44,0-2.61-.9-2.61-2h0C250.34,129.4,251.51,128.5,253,128.5Z"/><path id="Case-5" data-name="Case" class="cls-6" d="M115.71,113.7H196c7.09,0,12.84,4.15,12.84,9.28V254.42c0,5.13-5.75,9.28-12.84,9.28H115.71c-7.09,0-12.84-4.15-12.84-9.28V123C102.87,117.85,108.62,113.7,115.71,113.7Z"/><path id="Case-6" data-name="Case" class="cls-6" d="M108.68,130.32h94.55V241.39H108.68Z"/><rect id="Rectangle-11-4" data-name="Rectangle-11" class="cls-7" x="153.12" y="249.29" width="5.94" height="5.93" rx="2.97"/><circle id="Oval-6-2" data-name="Oval-6" class="cls-8" cx="132.85" cy="185.61" r="8.03"/><path id="Rectangle-11-5" data-name="Rectangle-11" class="cls-9" d="M153.73,175.55h33.19c1.19,0,2.14.7,2.14,1.55h0c0,.86-.95,1.55-2.14,1.55H153.73c-1.18,0-2.14-.69-2.14-1.55h0C151.59,176.25,152.55,175.55,153.73,175.55Z"/><path id="Rectangle-11-6" data-name="Rectangle-11" class="cls-9" d="M153.73,184.06h22.49c1.18,0,2.14.69,2.14,1.55h0c0,.85-1,1.54-2.14,1.54H153.73c-1.18,0-2.14-.69-2.14-1.54h0C151.59,184.75,152.55,184.06,153.73,184.06Z"/><path id="Rectangle-11-7" data-name="Rectangle-11" class="cls-9" d="M153.73,192.57h11.78c1.18,0,2.14.69,2.14,1.54h0c0,.86-1,1.55-2.14,1.55H153.73c-1.18,0-2.14-.69-2.14-1.55h0C151.59,193.26,152.55,192.57,153.73,192.57Z"/><rect id="Rectangle-11-8" data-name="Rectangle-11" class="cls-10" x="155.12" y="120.95" width="1.5" height="1.5" rx="0.75"/><ellipse id="Oval-6-3" data-name="Oval-6" class="cls-2" cx="391.47" cy="191.95" rx="9.8" ry="9.79"/><path id="Rectangle-11-9" data-name="Rectangle-11" class="cls-11" d="M417,176.2h40.5a2.36,2.36,0,0,1,2.61,2h0c0,1.11-1.16,2-2.61,2H417c-1.45,0-2.61-.89-2.61-2h0A2.36,2.36,0,0,1,417,176.2Z"/><path id="Rectangle-11-10" data-name="Rectangle-11" class="cls-11" d="M417,190.57h27.44c1.44,0,2.61.89,2.61,2h0c0,1.1-1.17,2-2.61,2H417a2.36,2.36,0,0,1-2.61-2h0C414.34,191.46,415.5,190.57,417,190.57Z"/><path id="Rectangle-11-11" data-name="Rectangle-11" class="cls-11" d="M417,204.93h14.37c1.44,0,2.61.89,2.61,2h0c0,1.1-1.17,2-2.61,2H417a2.36,2.36,0,0,1-2.61-2h0C414.34,205.82,415.5,204.93,417,204.93Z"/><rect id="Case-7" data-name="Case" class="cls-8" x="69.28" y="162.75" width="51.55" height="100.95" rx="6.24"/><path id="Case-8" data-name="Case" class="cls-6" d="M72.1,173.94h46v74.75h-46Z"/><path id="Rectangle-11-12" data-name="Rectangle-11" class="cls-9" d="M90.6,167.17h9.16c.23,0,.42.47.42,1h0c0,.58-.19,1-.42,1H90.6c-.23,0-.42-.46-.42-1h0C90.18,167.64,90.37,167.17,90.6,167.17Z"/><rect id="Rectangle-11-13" data-name="Rectangle-11" class="cls-7" x="92.18" y="253.03" width="5.94" height="5.93" rx="2.97"/><circle id="Oval-6-4" data-name="Oval-6" class="cls-8" cx="83.85" cy="211.14" r="3.91"/><rect id="Rectangle-11-14" data-name="Rectangle-11" class="cls-7" x="92.97" y="204.38" width="18.22" height="2.08" rx="1.04"/><rect id="Rectangle-11-15" data-name="Rectangle-11" class="cls-7" x="92.97" y="210.1" width="13.02" height="2.08" rx="1.04"/><rect id="Rectangle-11-16" data-name="Rectangle-11" class="cls-7" x="92.97" y="215.83" width="7.81" height="2.08" rx="1.04"/><rect id="Rectangle-11-17" data-name="Rectangle-11" class="cls-10" x="87.01" y="167.46" width="1.5" height="1.5" rx="0.75"/></svg>