<svg id="Layer_1" data-name="Layer 1" xmlns="http://www.w3.org/2000/svg" viewBox="0 0 460.49 232.44"><defs><style>.cls-1,.cls-2,.cls-3,.cls-4,.cls-6,.cls-8{fill:#fff;stroke-width:2.08px;}.cls-1,.cls-4,.cls-5{stroke:#580dba;}.cls-1,.cls-11,.cls-3,.cls-5,.cls-6,.cls-9{fill-rule:evenodd;}.cls-11,.cls-2,.cls-3{stroke:#f7567c;}.cls-5{fill:#580dba;}.cls-10,.cls-11,.cls-5,.cls-7,.cls-9{stroke-miterlimit:10;}.cls-10,.cls-6,.cls-7,.cls-8,.cls-9{stroke:#1c3a6b;}.cls-7,.cls-9{fill:#1c3a6b;}.cls-10{fill:#7510f7;}.cls-11{fill:#f7567c;}</style></defs><path id="Case" class="cls-1" d="M59,9.2A7.28,7.28,0,0,1,66.3,1.92H319.87a7.28,7.28,0,0,1,7.29,7.28V182.75a7.28,7.28,0,0,1-7.29,7.28H66.3A7.28,7.28,0,0,1,59,182.75Z"/><path id="Case-2" data-name="Case" class="cls-1" d="M75.41,21.18a3.13,3.13,0,0,1,3.13-3.13H307.37a3.12,3.12,0,0,1,3.13,3.13v129.3a3.12,3.12,0,0,1-3.13,3.12H78.54a3.12,3.12,0,0,1-3.13-3.12Z"/><path id="Case-3" data-name="Case" class="cls-1" d="M174,190h38.45l2.6,33.56H171.39Z"/><path id="Keyboard" class="cls-1" d="M155.33,230.88v-3.51a3.78,3.78,0,0,1,3.77-3.78h68.23a3.79,3.79,0,0,1,3.77,3.78v3.51a.26.26,0,0,1-.27.26H155.6A.27.27,0,0,1,155.33,230.88Z"/><rect id="Case-4" data-name="Case" class="cls-2" x="252.7" y="90.9" width="192.65" height="129.31" rx="6.24"/><path id="Keyboard-2" data-name="Keyboard" class="cls-3" d="M239.43,220.46v5.21a5.46,5.46,0,0,0,5.46,5.47H453.18a5.47,5.47,0,0,0,5.46-5.47v-5.21a.25.25,0,0,0-.26-.25H239.68A.25.25,0,0,0,239.43,220.46Z"/><path id="Notch" class="cls-3" d="M363.43,220.33H334.27a8.06,8.06,0,0,0,7.54,5.2h14.08A8.06,8.06,0,0,0,363.43,220.33Z"/><rect id="Screen" class="cls-2" x="261.3" y="103.13" width="175.32" height="105.07" rx="2.08"/><ellipse id="Oval-6" class="cls-4" cx="160.47" cy="82.96" rx="9.8" ry="9.79"/><path id="Rectangle-11" class="cls-5" d="M186,67.21h40.51c1.44,0,2.61.9,2.61,2h0c0,1.11-1.17,2-2.61,2H186c-1.44,0-2.61-.89-2.61-2h0C183.34,68.11,184.51,67.21,186,67.21Z"/><path id="Rectangle-11-2" data-name="Rectangle-11" class="cls-5" d="M186,81.58h27.44c1.44,0,2.61.89,2.61,2h0c0,1.1-1.17,2-2.61,2H186c-1.44,0-2.61-.9-2.61-2h0C183.34,82.47,184.51,81.58,186,81.58Z"/><path id="Rectangle-11-3" data-name="Rectangle-11" class="cls-5" d="M186,95.94h14.37c1.45,0,2.62.89,2.62,2h0c0,1.1-1.17,2-2.62,2H186c-1.44,0-2.61-.9-2.61-2h0C183.34,96.83,184.51,95.94,186,95.94Z"/><path id="Case-5" data-name="Case" class="cls-6" d="M48.71,81.14H129c7.09,0,12.84,4.15,12.84,9.28V221.86c0,5.12-5.75,9.28-12.84,9.28H48.71c-7.09,0-12.84-4.16-12.84-9.28V90.42C35.87,85.29,41.62,81.14,48.71,81.14Z"/><path id="Case-6" data-name="Case" class="cls-6" d="M41.68,97.76h94.55V208.83H41.68Z"/><rect id="Rectangle-11-4" data-name="Rectangle-11" class="cls-7" x="86.12" y="216.73" width="5.94" height="5.93" rx="2.97"/><circle id="Oval-6-2" data-name="Oval-6" class="cls-8" cx="65.85" cy="153.05" r="8.03"/><path id="Rectangle-11-5" data-name="Rectangle-11" class="cls-9" d="M86.73,143h33.19c1.19,0,2.14.7,2.14,1.55h0c0,.85-1,1.55-2.14,1.55H86.73c-1.18,0-2.14-.7-2.14-1.55h0C84.59,143.69,85.55,143,86.73,143Z"/><path id="Rectangle-11-6" data-name="Rectangle-11" class="cls-9" d="M86.73,151.5h22.49c1.18,0,2.14.69,2.14,1.55h0c0,.85-1,1.54-2.14,1.54H86.73c-1.18,0-2.14-.69-2.14-1.54h0C84.59,152.19,85.55,151.5,86.73,151.5Z"/><path id="Rectangle-11-7" data-name="Rectangle-11" class="cls-9" d="M86.73,160H98.51c1.18,0,2.14.7,2.14,1.55h0c0,.85-1,1.55-2.14,1.55H86.73c-1.18,0-2.14-.7-2.14-1.55h0C84.59,160.7,85.55,160,86.73,160Z"/><rect id="Rectangle-11-8" data-name="Rectangle-11" class="cls-10" x="88.12" y="88.39" width="1.5" height="1.5" rx="0.75"/><ellipse id="Oval-6-3" data-name="Oval-6" class="cls-2" cx="324.47" cy="159.39" rx="9.8" ry="9.79"/><path id="Rectangle-11-9" data-name="Rectangle-11" class="cls-11" d="M350,143.64h40.5a2.36,2.36,0,0,1,2.61,2h0c0,1.11-1.16,2-2.61,2H350c-1.45,0-2.61-.89-2.61-2h0A2.36,2.36,0,0,1,350,143.64Z"/><path id="Rectangle-11-10" data-name="Rectangle-11" class="cls-11" d="M350,158h27.44c1.44,0,2.61.9,2.61,2h0c0,1.11-1.17,2-2.61,2H350c-1.45,0-2.61-.89-2.61-2h0A2.36,2.36,0,0,1,350,158Z"/><path id="Rectangle-11-11" data-name="Rectangle-11" class="cls-11" d="M350,172.37h14.37c1.44,0,2.61.89,2.61,2h0c0,1.1-1.17,2-2.61,2H350a2.36,2.36,0,0,1-2.61-2h0C347.34,173.26,348.5,172.37,350,172.37Z"/><rect id="Case-7" data-name="Case" class="cls-8" x="2.28" y="130.19" width="51.55" height="100.95" rx="6.24"/><path id="Case-8" data-name="Case" class="cls-6" d="M5.1,141.38h46v74.75H5.1Z"/><path id="Rectangle-11-12" data-name="Rectangle-11" class="cls-9" d="M23.6,134.61h9.16c.23,0,.42.47.42,1h0c0,.58-.19,1-.42,1H23.6c-.23,0-.42-.46-.42-1h0C23.18,135.08,23.37,134.61,23.6,134.61Z"/><rect id="Rectangle-11-13" data-name="Rectangle-11" class="cls-7" x="25.18" y="220.47" width="5.94" height="5.93" rx="2.97"/><circle id="Oval-6-4" data-name="Oval-6" class="cls-8" cx="16.85" cy="178.58" r="3.91"/><rect id="Rectangle-11-14" data-name="Rectangle-11" class="cls-7" x="25.97" y="171.82" width="18.22" height="2.08" rx="1.04"/><rect id="Rectangle-11-15" data-name="Rectangle-11" class="cls-7" x="25.97" y="177.54" width="13.02" height="2.08" rx="1.04"/><rect id="Rectangle-11-16" data-name="Rectangle-11" class="cls-7" x="25.97" y="183.27" width="7.81" height="2.08" rx="1.04"/><rect id="Rectangle-11-17" data-name="Rectangle-11" class="cls-10" x="20.01" y="134.9" width="1.5" height="1.5" rx="0.75"/></svg>