<svg id="Layer_1" data-name="Layer 1" xmlns="http://www.w3.org/2000/svg" xmlns:xlink="http://www.w3.org/1999/xlink" viewBox="0 0 564 563.5"><defs><style>.cls-1,.cls-9{fill:none;}.cls-2{clip-path:url(#clip-path);}.cls-3{fill:#7510f7;}.cls-4{fill:#6500e8;stroke:#801dff;stroke-width:1.25px;}.cls-16,.cls-4,.cls-9{stroke-miterlimit:10;}.cls-5{fill:#6e2e12;}.cls-16,.cls-6{fill:#f0c7b1;}.cls-7{fill:#ffe4d6;}.cls-8{fill:#e1ac8f;}.cls-16,.cls-9{stroke:#c27b55;stroke-width:3.75px;}.cls-10{fill:url(#linear-gradient);}.cls-11{fill:#1c3a6b;}.cls-12{fill:#2c4a7a;}.cls-13{fill:#05204c;}.cls-14{fill:#0f2c5c;}.cls-15{fill:#00173d;}.cls-17{fill:#c27b55;}.cls-18{fill:#e8b9a0;}.cls-19{fill:url(#linear-gradient-2);}.cls-20{fill:url(#radial-gradient);}.cls-21{fill:#66724e;}.cls-22,.cls-23,.cls-24,.cls-25,.cls-26,.cls-27,.cls-31,.cls-32,.cls-33,.cls-34,.cls-35{isolation:isolate;}.cls-22,.cls-31{opacity:0.7;}.cls-22{fill:url(#radial-gradient-2);}.cls-23,.cls-32{opacity:0.4;}.cls-23{fill:url(#radial-gradient-3);}.cls-24{opacity:0.9;}.cls-25,.cls-26,.cls-33,.cls-34{opacity:0.5;}.cls-25{fill:url(#linear-gradient-3);}.cls-26{fill:url(#linear-gradient-4);}.cls-27,.cls-35{opacity:0.75;}.cls-27{fill:url(#linear-gradient-5);}.cls-28{fill:url(#radial-gradient-4);}.cls-29{fill:url(#radial-gradient-5);}.cls-30{fill:url(#radial-gradient-6);}.cls-31{fill:url(#radial-gradient-7);}.cls-32{fill:url(#radial-gradient-8);}.cls-33{fill:url(#linear-gradient-6);}.cls-34{fill:url(#linear-gradient-7);}.cls-35{fill:url(#linear-gradient-8);}.cls-36{fill:url(#radial-gradient-9);}.cls-37{fill:url(#radial-gradient-10);}.cls-38{fill:url(#radial-gradient-11);}.cls-39{fill:url(#radial-gradient-12);}.cls-40{fill:#a46c47;}.cls-41{fill:#5f2106;}.cls-42{fill:#7d3d21;}.cls-43{fill:#401400;}</style><clipPath id="clip-path"><circle class="cls-1" cx="282.24" cy="284.12" r="275"/></clipPath><linearGradient id="linear-gradient" x1="-319.4" y1="814.52" x2="-319.4" y2="858.52" gradientTransform="matrix(2.5, 0, 0, -2.5, 1078.5, 2497.92)" gradientUnits="userSpaceOnUse"><stop offset="0" stop-color="#e1ac8f" stop-opacity="0.8"/><stop offset="0.7" stop-color="#c27b55"/></linearGradient><linearGradient id="linear-gradient-2" x1="-319.02" y1="843.52" x2="-319.02" y2="846.52" gradientTransform="matrix(2.5, 0, 0, -2.5, 1078.5, 2497.92)" gradientUnits="userSpaceOnUse"><stop offset="0.1" stop-color="#e8b9a0"/><stop offset="1" stop-color="#e1ac8f"/></linearGradient><radialGradient id="radial-gradient" cx="-876.6" cy="880.54" r="12.84" gradientTransform="matrix(-2.65, 0, 0, -2.33, -2107.92, 2292.47)" gradientUnits="userSpaceOnUse"><stop offset="0" stop-color="#fff"/><stop offset="0.54" stop-color="#fdfefe"/><stop offset="0.74" stop-color="#f6f8f9"/><stop offset="0.88" stop-color="#eaeff2"/><stop offset="0.99" stop-color="#d9e3e8"/><stop offset="1" stop-color="#d8e2e7"/></radialGradient><radialGradient id="radial-gradient-2" cx="893.86" cy="-1874.4" r="59.75" gradientTransform="matrix(0.24, -0.06, -0.06, -0.24, -113.9, -150.11)" gradientUnits="userSpaceOnUse"><stop offset="0" stop-color="#fff"/><stop offset="1" stop-color="#fff" stop-opacity="0"/></radialGradient><radialGradient id="radial-gradient-3" cx="1754.62" cy="-1191.69" r="59.75" gradientTransform="matrix(0.25, 0, 0, -0.25, -215.99, -54.31)" xlink:href="#radial-gradient-2"/><linearGradient id="linear-gradient-3" x1="-296.73" y1="897.25" x2="-295.79" y2="898.37" gradientTransform="matrix(2.5, 0, 0, -2.5, 949.13, 2498.55)" xlink:href="#radial-gradient-2"/><linearGradient id="linear-gradient-4" x1="-292.19" y1="903.23" x2="-292.94" y2="902.33" gradientTransform="matrix(2.5, 0, 0, -2.5, 949.13, 2498.55)" xlink:href="#radial-gradient-2"/><linearGradient id="linear-gradient-5" x1="-289.76" y1="905.7" x2="-291.49" y2="903.64" gradientTransform="matrix(2.5, 0, 0, -2.5, 949.13, 2498.55)" xlink:href="#radial-gradient-2"/><radialGradient id="radial-gradient-4" cx="-289.19" cy="1621.74" fx="-278.60258336228827" r="17.9" gradientTransform="matrix(2.5, 0.05, -0.04, 1.76, 1012.08, -2601.59)" gradientUnits="userSpaceOnUse"><stop offset="0" stop-color="#e1ac8f"/><stop offset="0.7" stop-color="#e1ac8f" stop-opacity="0.3"/><stop offset="1" stop-color="#f0c7b1" stop-opacity="0"/></radialGradient><radialGradient id="radial-gradient-5" cx="-383.61" cy="876.3" r="23.21" gradientTransform="matrix(2.74, -0.12, -0.14, -2.39, 1387.69, 2331.18)" gradientUnits="userSpaceOnUse"><stop offset="0.9" stop-opacity="0"/><stop offset="1" stop-opacity="0.2"/></radialGradient><radialGradient id="radial-gradient-6" cx="-311.27" cy="880.78" r="12.84" gradientTransform="matrix(2.65, 0, 0, -2.33, 1169.92, 2292.47)" xlink:href="#radial-gradient"/><radialGradient id="radial-gradient-7" cx="893.87" cy="-1874.4" r="59.75" gradientTransform="matrix(0.24, -0.06, -0.06, -0.24, 14.85, -150.11)" xlink:href="#radial-gradient-2"/><radialGradient id="radial-gradient-8" cx="1754.63" cy="-1191.69" r="59.76" gradientTransform="matrix(0.25, 0, 0, -0.25, -87.25, -54.31)" xlink:href="#radial-gradient-2"/><linearGradient id="linear-gradient-6" x1="-296.73" y1="897.25" x2="-295.79" y2="898.37" gradientTransform="matrix(2.5, 0, 0, -2.5, 1077.88, 2498.55)" xlink:href="#radial-gradient-2"/><linearGradient id="linear-gradient-7" x1="-292.19" y1="903.23" x2="-292.94" y2="902.33" gradientTransform="matrix(2.5, 0, 0, -2.5, 1077.88, 2498.55)" xlink:href="#radial-gradient-2"/><linearGradient id="linear-gradient-8" x1="-289.76" y1="905.7" x2="-291.49" y2="903.64" gradientTransform="matrix(2.5, 0, 0, -2.5, 1077.88, 2498.55)" xlink:href="#radial-gradient-2"/><radialGradient id="radial-gradient-9" cx="-888.65" cy="1637.32" fx="-878.0638174470625" r="17.9" gradientTransform="matrix(-2.5, 0.05, 0.04, 1.76, -1952.07, -2601.57)" xlink:href="#radial-gradient-4"/><radialGradient id="radial-gradient-10" cx="-927.91" cy="904.76" r="23.21" gradientTransform="matrix(-2.74, -0.12, 0.14, -2.39, -2325.69, 2331.19)" xlink:href="#radial-gradient-5"/><radialGradient id="radial-gradient-11" cx="-319.4" cy="871.52" r="41" gradientTransform="matrix(2.5, 0, 0, -2.5, 1078.5, 2497.92)" gradientUnits="userSpaceOnUse"><stop offset="0" stop-color="#ffe4d6" stop-opacity="0.5"/><stop offset="0.9" stop-color="#f0c7b1" stop-opacity="0"/></radialGradient><radialGradient id="radial-gradient-12" cx="-319.4" cy="931.52" r="37" xlink:href="#radial-gradient-11"/></defs><g class="cls-2"><g id="svga-group-wrapper"><g id="svga-group-backs-single"><path id="SvgjsPath3612" class="cls-3" d="M592.5,596.62h-625v-625h625Z"/><path id="SvgjsPath3613" class="cls-4" d="M167.59,231.79H95.09v-65h72.5Zm72.92-115.17H138.84v82.67H240.51Zm-50.84,167.5H280v-109H189.67Zm32.5-10.66H131.34v78.33h90.83ZM468.84,67.62H345V209.29H468.84Zm-140,64.17h-30v35h30Zm90.7-108.33H298.84V95.12h120.7ZM280,48.46H215v90h65ZM131.34,55.12H95.09V93.46h36.25Zm-48.41,61.5H26.88v86.09H82.93Zm65.91,167.5H50.51V393.46h98.33ZM95.09,468.46H205.51v-65H95.09Zm263.75-25H281.25v56.66h77.59V443.46ZM547,386.79H475.19v85H547ZM428.84,425.35H367.17V482h61.67V425.35Zm59.1-111.9H398V415.12H488V313.45Zm22.56,175H398v73.33H510.5Zm-371.66-45h-122v110h122v-110ZM537.17,166.79H454.26v65h82.91Zm-49.23,93.33H452.05v37.09h35.89Zm-471.1,69H85.19V232.37H16.84Zm96.89-309L-9.5,23.46v93.16H113.73Zm445.11,3.34h-80V125.12h80Zm-376.34-10H148.84V86.79H182.5ZM552.17,278.67H470v66.66h82.17Z"/></g><g id="svga-group-humanwrap-move"><g id="svga-group-humanwrap"><g id="svga-group-hair-back-move"><g id="svga-group-hair-back"><path id="SvgjsPath3573" class="cls-5" d="M281.25,285.37h-2.5v-2.5h2.5Z"/></g></g><g id="svga-group-humanbody-single"><path id="SvgjsPath2914" class="cls-6" d="M518.54,533.57c-5.49-11.87-20.48-29.45-37.15-34.31-20.59-6-67.09-13.27-84.33-17.31-13.82-3.24-41.65-28.23-51.41-36.62a10.59,10.59,0,0,1-3.22-6.9c-.34-27.16,10.49-99.31,10.49-99.31H207.08s10.84,72.15,10.49,99.31a10.54,10.54,0,0,1-3.22,6.9c-9.75,8.39-37.59,33.38-51.41,36.62-17.24,4-63.74,11.55-84.33,17.56-16.67,4.85-31.66,22.19-37.15,34-9.27,20-11.46,56.25-11.46,87.5H530C530,589.82,527.81,553.59,518.54,533.57Z"/><path id="SvgjsPath2915" class="cls-7" d="M427.89,494.27c60.86,8.85,86.47,21.77,94.49,126.8H530c0-31.25-2.19-67.48-11.46-87.5-5.49-11.87-20.49-29.45-37.15-34.31-20.6-6-67.09-13.27-84.33-17.3-13.82-3.24-45.61-30.18-54.11-40.88,8.4,11.76,32,39,52.64,46.15C405.47,490.65,413.7,492.2,427.89,494.27Zm-263.48-7c20.66-7.13,44.24-34.39,52.64-46.15-8.5,10.7-40.28,37.64-54.11,40.88-17.24,4-63.73,11.54-84.33,17.55C62,504.37,47,521.7,41.46,533.57,32.2,553.59,30,589.82,30,621.07h7.63c8-104.36,33.69-118,94.48-126.81C146.3,492.2,154.53,490.65,164.41,487.23Z"/><path id="SvgjsPath2916" class="cls-8" d="M269.12,528.17s-12.69-4-17.71-5.95c-26.12-10-111-16.51-111-16.51s89.39,3.54,109.11,6.94c-1.14-11.91-7.54-50-7.54-50s12.87,42,16,52.65C259.69,521,269.12,528.17,269.12,528.17Zm27-3.35c-.22.18-.48.42-.75.67A6.24,6.24,0,0,0,296.11,524.82Zm-27,3.35s7.23,7.48,10.86,7.58c4.78.12,12.07-7.25,15.38-10.26-3.16,2.39-10.4,3.47-13.27,3.59C278.76,529.2,269.12,528.17,269.12,528.17Zm52.54-18.8c-3.86.62-11,2-11,2l5.72-37.23c-1.61,7.68-11.18,40.53-20.3,50.7,4.78-4,15.4-6,20.81-6.76,25.59-3.71,25.58-3.71,102.66-12.35C419.58,505.71,346.9,505.32,321.66,509.37Z"/><path id="SvgjsPath2917" class="cls-9" d="M518.54,533.57c-5.49-11.87-20.48-29.45-37.15-34.31-20.59-6-67.09-13.27-84.33-17.31-13.82-3.24-41.65-28.23-51.41-36.62a10.59,10.59,0,0,1-3.22-6.9c-.34-27.16,10.49-99.31,10.49-99.31H207.08s10.84,72.15,10.49,99.31a10.54,10.54,0,0,1-3.22,6.9c-9.75,8.39-37.59,33.38-51.41,36.62-17.24,4-63.74,11.55-84.33,17.56-16.67,4.85-31.66,22.19-37.15,34-9.27,20-11.46,56.25-11.46,87.5H530C530,589.82,527.81,553.59,518.54,533.57Z"/></g><g id="svga-group-chinshadow-single"><path id="SvgjsPath3171" class="cls-10" d="M280,461.29c28.48,0,41.58-15.9,60.55-24.1,0-19.83,5.1-59.83,8.2-82.27-40.34-4.63-97.17-4.63-137.51,0,3.11,22.43,8.23,62.43,8.2,82.25C238.43,445.38,251.52,461.29,280,461.29Z"/></g><g id="svga-group-clothes-single"><path id="SvgjsPath3585" class="cls-11" d="M541.93,620.83c-62.69-.62-160.61,0-240.15.27l9.41-85.58c1-22.19,10.77-28,16-41.36,21.31-54.18,12.82-38.09,20-82.84,24.23,3.34,43.11,52.54,60.85,59,0,1.07-.83,6-1.89,12.24C497.8,501.58,530,481,541.93,620.83ZM263.69,535.89C261,528.05,250,516.52,244.81,509c-8.92-13-16.32-26.74-27.2-59,0-.36-1.76-28.52-4.62-40.51-14.41,6.78-11.82,17.86-34,43.8-4.65,5.41-13.86,7.07-23.15,12.51a104.37,104.37,0,0,0-.37,14.11C132.22,483.45,67,497.51,43.32,515.8c-11,25.4-36.26,72.5-32.24,107.3,70.58-.76,178-1.48,268.45-2,0,0,3.25-49.76-17.15-85.77A13.94,13.94,0,0,1,263.69,535.89Z"/><path id="SvgjsPath3586" class="cls-12" d="M156.92,482.7c-49.77,14.23-82.18,24.59-105.08,37.73C41.41,539.92,24.17,567.52,14.73,621.1c-.13,0-2.42-.23-2.55-.23.23-42.68,19.48-77,31.08-104.61,25.51-20.65,80.72-30.85,112.5-36C155.85,480.48,156.83,482.54,156.92,482.7Zm249.33.34c31.77,5.1,78.74,10.42,105.3,27.29,18.44,27.82,28.57,67.09,28.8,109.77-.13,0-2.42.24-2.55.23-9.44-53.58-20.81-83-31.25-102.5-22.9-13.14-51.7-18.16-101.47-32.39C405.18,485.28,406.15,483.22,406.25,483Z"/><path id="SvgjsPath3587" class="cls-13" d="M329.09,537c-4.3-2.44-12.47-2.9-17.51,1.49,1.49-4.39,7-8,14.19-8.81,22.54,4.42,49.77,34.67,76.77,46C375.76,571.12,349.55,548.63,329.09,537Zm-64.92,2.52-3-5.42c-5.15.1-17.39,1.21-22.54,5.77-23.23,20.59-60.3,30.88-76.79,41.64C246.76,558.88,230.51,541,264.17,539.54Z"/><path id="SvgjsPath3588" class="cls-14" d="M319.05,531.58c-3.73,1.07-7.65,3.89-7.86,3.94,1-22.19,10.77-28,16-41.36,21.31-54.18,12.82-38.1,20-82.84,4.85.66,9.49,3.54,13.95,7.71-3.07,23.75-9.6,42.5-19.11,63.92,11.15-6.31,23.24-14,34.18-20.07C353.48,483.35,326.29,501.82,319.05,531.58Zm-55.36,4.31C261,528.05,250,516.52,244.81,509c-8.92-13-16.32-26.74-27.2-59,0-.36-1.76-28.52-4.62-40.51-9.12,4.29-8.35,7.39-14.43,17.78,4.89,25.31,14.79,41.41,28.82,62.46-12-7.89-28.66-21.36-45.18-29.62C210,481,235.05,507,253.83,534.64,259.93,532.78,260.17,534.13,263.69,535.89Z"/><path id="SvgjsPath3589" class="cls-15" d="M513.54,507.84c-21.38-12.65-58.38-21.16-106.36-26.95.66-6.2,1.13-10.65,1.14-10.72C390.55,464,370.8,414,346.14,411c-18.26,112.22-29.31,73.89-38.42,123.1-1.65,9-7.13,81.33-7.41,84.8l-19.31,0c1.37-44.9-15.8-80.21-16.85-82.48-2.19-7.8-13.87-20-19.11-27.6-13.6-19.77-19.78-37.72-27.16-58.85,0,0-1.2-29.09-4.15-40.89-14.86,6.82-12.64,15.16-34.95,41.25-6.31,7.34-14.87,10.42-23.22,15.42a106.82,106.82,0,0,0-.33,13.63C69.53,490.3,50.88,509.32,40.5,513.88c-7.35,23.81-30.83,58.33-31,109.6,74.07,0,85.16,1,308.71.21q52-.23,104-.56c51.19-.3,121.67,1.17,121.67,1.17C543.84,571,532.17,538.88,513.54,507.84Zm-189.45-6.42c17.46-34.21,17.46-42.34,24.2-89.05,21.13,7.05,40.47,52.38,57.8,58-12.35,63.79-5.66,88.45-4.78,103.39-6.44-3.47-11.4-6.63-17.65-10.37-19.3-11.57-32.67-25.6-53.15-34-5.54-2.34-13.52,1.15-18.4,4.74C314.8,510.58,317.53,514.27,324.09,501.42Zm4.13,29.51s0-.07,0-.11C328.91,530.71,328.52,530.81,328.22,530.93Zm-16.33,10.12c1-4.94,8.43-7.78,12.16-9-4.82,21.4-11.12,50.2-11.24,86.91h-9.37C303.71,615.7,307.93,561.22,311.89,541.05ZM277.33,619H271.4c2.78-32-14-59.53-21.73-82.6,2-.2,8-1.84,9.69-1.55C263.47,537.91,282.5,588.81,277.33,619ZM180.07,452.74c23.87-27.44,18.9-34.16,32.11-42.24.83,7.88,1.49,15.81,1.91,23.77,1.4,28.15-2.35,8.92,8.72,37.94,16.29,42.64,30.84,46.29,38.3,60.92-26.44-1.86-30.29,18-54.08,25.9-21.88,8.62-15.88,4.61-45.93,21.84,8.4-59.54-4.35-87.09-4.35-113.92C165.4,462.47,173.7,460,180.07,452.74ZM13,620.54c4.16-51.66,24.26-85,32.5-103.33,11.61-7.46,50.06-27.31,109.8-36,.84,16.49,4.81,30.92,5.13,47.32.6,15.69.54,35.2-.63,54.33,11.13-5.1,21.81-11.19,34.2-15.64,34.51-12.52,28.59-15.28,45.11-26.69,4-2.76,3.36-2.79,6.8-3.66,6.42,20,26.66,47.25,22,82.07C179.83,619.14,92.12,619.69,13,620.54Zm303.51-1.63c-.79-31.14,6.61-57.52,11.66-87.81,12.14.16,45.8,33.55,75.37,46.07.68-10.52-.44-32.44-.44-56.83,0-.73,2.28-22.49,3.82-37.11,28.2,8.1,73.93,8.18,104.61,30,12.3,23.6,27.12,50.12,28.13,106.52C469.79,619.13,393.58,618.87,316.52,618.91Z"/></g><g id="svga-group-head"><g id="svga-group-ears-left-move"><g id="svga-group-ears-left"><path id="SvgjsPath3159" class="cls-16" d="M148,237.88c-2.41-6.21-20.2-15-28-13.61-8.84,1.56-12.09,10.89-10.92,17.79,2.76,16.22,10,23.05,13.24,35.72,2.74,10.68,8.58,16.83,11.47,21.37,3.55,5.57,6.82,18.35,7.56,20.22,1.15,2.95,5.25,10.1,12.5,9.74,8.33-.43,18.86-16.72,19-20.34C173.86,289.14,154.33,254.07,148,237.88Z"/><path id="SvgjsPath3160" class="cls-17" d="M149.88,304a6.51,6.51,0,0,0-.23-5c-1.68-3.06-6.06-8.67-7.06-12-.81-2.75-.4-8.61-.53-11.48-.23-5.08-3.73-8.55-4.82-11.47-7.28-19.48-17-31.55-22.5-34.06-4.08,10-.84,17.27,4.85,32.61-3.43-20.85-.13-27.37-.13-27.37s10,8.66,15,27.93c.9,3.47-2.78,10.73-2.07,14.26.88,4.43,10.46,13,13.14,16.59C147.62,296.74,149.88,304,149.88,304Z"/></g></g><g id="svga-group-ears-right-move"><g id="svga-group-ears-right"><path id="SvgjsPath3161" class="cls-16" d="M411.3,237.88c2.42-6.21,20.21-15,28-13.61,8.85,1.56,12.09,10.89,10.92,17.79-2.76,16.22-10,23.05-13.24,35.72-2.74,10.68-8.59,16.83-11.47,21.37-3.55,5.57-6.83,18.35-7.56,20.22-1.16,2.95-5.26,10.1-12.5,9.74-8.33-.43-18.87-16.72-19-20.34C385.48,289.14,405,254.07,411.3,237.88Z"/><path id="SvgjsPath3162" class="cls-17" d="M409.46,304a6.49,6.49,0,0,1,.24-5c1.68-3.06,6.06-8.67,7.05-12,.81-2.75.4-8.61.54-11.48.23-5.08,3.72-8.55,4.81-11.47,7.28-19.48,17-31.55,22.5-34.06,4.08,10,.84,17.27-4.85,32.61,3.44-20.85.13-27.37.13-27.37s-10,8.66-15,27.93c-.89,3.47,2.78,10.73,2.07,14.26-.88,4.43-10.46,13-13.13,16.59C411.72,296.74,409.46,304,409.46,304Z"/></g></g><g id="svga-group-faceshape-wrap"><g id="svga-group-faceshape-single"><path id="SvgjsPath3168" class="cls-6" d="M280,36.29c-84,.13-152.29,69.17-152.17,154.23a156.31,156.31,0,0,0,5,39.09h0c0,.13,20.3,89.52,29.55,118.8,6.94,22,35.72,55,56,63.31,19.56,8,32.59,24.57,61.61,24.57s42.05-16.53,61.62-24.57c20.27-8.34,49.06-41.34,56-63.31,9.25-29.28,29.52-118.67,29.55-118.8h0a155.85,155.85,0,0,0,5-39.09C432.31,105.46,364.05,36.42,280,36.29Z"/><path id="SvgjsPath3169" class="cls-18" d="M381.82,76c26.06,27.91,42.17,66.44,42.11,109A164.91,164.91,0,0,1,419.19,224h0c0,.14-19.2,89.53-27.95,118.81-6.56,22-33.79,55-53,63.3-18.51,8-30.83,24.58-58.27,24.58s-39.77-16.54-58.28-24.58c-19.17-8.33-46.4-41.33-53-63.3-8.75-29.28-27.92-118.67-28-118.81h0a164.46,164.46,0,0,1-4.73-39.08c-.07-42.53,16-81.05,42.1-109a154.29,154.29,0,0,0-50.36,114.55,156.31,156.31,0,0,0,5,39.09h0c0,.13,20.3,89.52,29.55,118.8,6.94,22,35.72,55,56,63.31,19.56,8,32.59,24.57,61.61,24.57s42.05-16.53,61.62-24.57c20.27-8.34,49.06-41.34,56-63.31,9.25-29.28,29.52-118.67,29.55-118.8h0A155.39,155.39,0,0,0,381.82,76Z"/><path id="SvgjsPath3170" class="cls-9" d="M280,36.29c-84,.13-152.29,69.17-152.17,154.23a156.31,156.31,0,0,0,5,39.09h0c0,.13,20.3,89.52,29.55,118.8,6.94,22,35.72,55,56,63.31,19.56,8,32.59,24.57,61.61,24.57s42.05-16.53,61.62-24.57c20.27-8.34,49.06-41.34,56-63.31,9.25-29.28,29.52-118.67,29.55-118.8h0a155.85,155.85,0,0,0,5-39.09C432.31,105.46,364.05,36.42,280,36.29Z"/></g></g><g id="svga-group-mouth-single-move"><g id="svga-group-mouth-single"><path id="SvgjsPath3163" class="cls-19" d="M270.57,382.21l20.74-.51C288.91,392.87,272.21,391.27,270.57,382.21Z"/><path id="SvgjsPath3167" class="cls-17" d="M270.86,382.92a.68.68,0,1,1,.2-1.35c.11,0,10.77,1.36,19.69-.54a.69.69,0,1,1,.33,1.33A67.43,67.43,0,0,1,270.86,382.92Zm9.35-8.92c-3.76,0-7.4-1.31-11.06-1.94-4.1-.72-8.19-.11-12.29.26s-13.33,0-15.91-1.67a2,2,0,0,1,.45-3.62c1.53-.55,3.93.59,5.48.87,7.18,1.28,11-.09,17.25-.3,9.63-.29,10.65,3.75,22.66,1.33,12.92-2.61,18.73-.64,28-3.43,1.27-.38,2.78-1.4,4.11-.71a2,2,0,0,1-.13,3.66c-8.51,3.75-17.93,2.23-27.38,3.81C287.68,372.88,284,374,280.21,374Z"/></g></g><g id="svga-group-eyes-left-move"><g id="svga-group-eyes-left"><g id="svga-group-eyesback-left"><path id="SvgjsPath3229" class="cls-20" d="M237.68,256.93c-8.24-2-12.43,2.65-24.52,2.92-20.15.44-24.85-1.55-28-6.6a37.81,37.81,0,0,1-3.16-6.5l-.25-10.37c3.32-9.87,48.85-10.88,64.75,4.46a13.59,13.59,0,0,1,1.16,4.67,27.41,27.41,0,0,1-2.37,6.87A16.34,16.34,0,0,1,237.68,256.93Z"/></g><g id="svga-group-eyesiriswrapper-left"><g id="svga-group-eyesiriscontrol-left"><g id="svga-group-eyesiris-left"><path id="SvgjsPath3499" class="cls-21" d="M230.62,244.75a15,15,0,0,1-30,0h0a15,15,0,0,1,30,0Z"/><path id="SvgjsPath3500" class="cls-22" d="M214,229.91l-.18,0,.21,1C214,230.61,214,230.26,214,229.91Zm0,1c.17,4.93.46,9.32,1.29,10.91C215.71,240.12,215,235.78,214,231Zm1.29,10.91a1,1,0,0,1-.52.8,1.09,1.09,0,0,1-.92-.26,1,1,0,0,1-.09.94,1,1,0,0,1-.93.2,1.08,1.08,0,0,1,.37.88c-.07.26-.34.46-.74.61.4.15.67.35.73.61a.62.62,0,1,0,.57,1.08,1.09,1.09,0,0,1,.08.95,1,1,0,0,1,.92-.25c.25.1.41.38.51.8.2-.38.43-.62.7-.65a1,1,0,0,1,.82.47,1.08,1.08,0,0,1,.32-.9.62.62,0,1,0,.81-.91c.13-.24.43-.36.86-.41-.35-.25-.57-.5-.56-.77s.21-.53.57-.77a1,1,0,0,1-.86-.42.62.62,0,1,0-.8-.91,1,1,0,0,1-.32-.9c-.28.32-.56.5-.82.46S215.47,242.24,215.27,241.86Zm1.52.19c1.2-1.34,2.55-5.53,3.93-10.26C218.58,236.23,216.79,240.25,216.79,242.05Zm3.92-10.26c.15-.31.31-.62.45-.93l-.16-.06C220.9,231.13,220.81,231.46,220.71,231.79Zm-2.65,11.13c1.67-.63,4.82-3.71,8.24-7.26C222.35,238.6,218.89,241.33,218.06,242.92Zm8.24-7.26.76-.56L227,235Zm-7.54,8.62c1.78.22,6-1,10.68-2.6C224.57,242.45,220.24,243.26,218.76,244.28Zm10.68-2.6.84-.13,0-.14Zm-10.68,4.13c1.47,1,5.79,1.87,10.65,2.66C224.75,246.89,220.54,245.6,218.76,245.81Zm10.65,2.66.72.25,0-.13ZM218,247.17c.83,1.59,4.27,4.35,8.2,7.31C222.85,250.91,219.72,247.81,218,247.17Zm8.21,7.31c.14.15.3.31.44.47l.08-.08C226.59,254.74,226.41,254.61,226.25,254.48ZM216.77,248c0,1.8,1.76,5.83,3.87,10.28C219.3,253.58,218,249.38,216.77,248Zm3.87,10.28c.06.19.11.38.16.58l.1,0Zm-5.39-10.1c-.84,1.59-1.15,6-1.35,10.9C214.91,254.3,215.68,250,215.25,248.22Zm-1.35,10.9c-.05.19-.08.38-.12.57h.1C213.88,259.51,213.89,259.31,213.9,259.12Zm-.08-11.45c-1.49,1-3.8,4.76-6.27,9C210.69,252.89,213.39,249.41,213.82,247.67Zm-6.26,9-.41.49.1.06C207.35,257.06,207.45,256.87,207.56,256.69Zm5.25-10.17c-1.79.21-5.58,2.45-9.74,5.07C207.61,249.69,211.61,247.87,212.81,246.52Zm-9.75,5.08-.65.27a.21.21,0,0,0,.06.1Zm9.38-6.57c-1.67-.64-6.07-.42-11,0C206.37,245.42,210.76,245.66,212.44,245Zm-11,0-.81-.07v.14Zm11.35-1.46c-1.18-1.34-5.17-3.19-9.7-5.12C207.26,241.07,211,243.33,212.81,243.54Zm-9.7-5.12-.79-.51a.61.61,0,0,1-.07.14Zm10.72,4c-.42-1.75-3.1-5.24-6.21-9.06C210.06,237.62,212.36,241.37,213.83,242.4Zm-6.21-9.06-.49-.87a.71.71,0,0,0-.14.1C207.19,232.82,207.42,233.08,207.62,233.34Z"/><path id="SvgjsPath3504" class="cls-23" d="M217.84,230l-.17,0c0,.34,0,.69-.07,1Zm-.24,1c-1.1,4.8-2,9.12-1.57,10.87C216.9,240.27,217.3,235.89,217.6,231ZM216,241.84c-.21.38-.44.61-.71.64a1.08,1.08,0,0,1-.82-.49,1,1,0,0,1-.33.89.62.62,0,1,0-.83.89,1,1,0,0,1-.86.4c.34.25.55.51.54.78s-.22.52-.57.75a1,1,0,0,1,.84.44,1.07,1.07,0,0,1-.16.94,1,1,0,0,1,.94,0,1,1,0,0,1,.29.91c.3-.31.58-.49.85-.45s.48.28.67.67c.11-.42.28-.7.54-.79a.62.62,0,1,0,1-.66.62.62,0,1,0,.59-1.07c.07-.26.34-.45.75-.59-.4-.16-.66-.37-.72-.63a1,1,0,0,1,.39-.87.81.81,0,0,1-1-1.17,1,1,0,0,1-.92.23C216.28,242.55,216.12,242.26,216,241.84Zm1.42.58c1.5-1,3.89-4.68,6.44-8.89C220.68,237.26,217.92,240.68,217.45,242.42Zm6.44-8.9.67-.77-.14-.11C224.25,232.94,224.07,233.24,223.89,233.52Zm-5.45,10.07c1.79-.17,5.63-2.33,9.84-4.88C223.7,240.53,219.66,242.27,218.44,243.59Zm9.84-4.88.89-.35a.51.51,0,0,1-.07-.15C228.83,238.38,228.56,238.55,228.28,238.71Zm-9.51,6.38c1.67.67,6.07.54,11,.25C224.86,244.82,220.47,244.49,218.77,245.09Zm11,.25.85.09v-.14Zm-11.39,1.23c1.16,1.38,5.12,3.3,9.61,5.32C223.88,249.15,220.15,246.82,218.37,246.57Zm9.61,5.32.62.42.07-.11C228.44,252.1,228.2,252,228,251.89Zm-10.65-4.2c.38,1.76,3,5.3,6,9.19C221,252.54,218.78,248.74,217.33,247.69Zm6,9.18c.11.19.21.38.31.57l.1-.06Zm-7.48-8.67c-.47,1.74.19,6.09,1.08,10.94C216.88,254.21,216.69,249.81,215.88,248.2ZM217,259.14c0,.19,0,.39,0,.59h.1C217,259.53,217,259.33,217,259.14ZM214.37,248c-1.23,1.32-2.67,5.47-4.13,10.18C212.46,253.76,214.33,249.78,214.37,248Zm-4.14,10.18c-.09.17-.17.35-.26.52l.09,0C210.12,258.54,210.18,258.34,210.23,258.16Zm2.89-11.08c-1.7.6-4.9,3.62-8.39,7.1C208.75,251.32,212.26,248.65,213.12,247.08Zm-8.39,7.1-.51.36.07.08C204.44,254.47,204.59,254.33,204.73,254.18Zm7.71-8.47c-1.78-.26-6,.92-10.72,2.38C206.6,247.42,210.94,246.7,212.44,245.71Zm-10.72,2.38-.71.1,0,.11C201.27,248.24,201.49,248.16,201.72,248.09Zm10.76-3.91c-1.46-1.06-5.76-2-10.61-2.88C206.51,243,210.69,244.35,212.48,244.18Zm-10.61-2.88-.76-.28s0,.1,0,.14Zm11.35,1.53c-.79-1.6-4.17-4.42-8.05-7.46C208.49,239,211.56,242.17,213.22,242.83Zm-8.05-7.46-.63-.69-.1.12ZM214.5,242c.05-1.79-1.64-5.86-3.66-10.35C212.09,236.4,213.34,240.62,214.5,242Zm-3.66-10.35-.25-1-.16.05Z"/><path id="SvgjsPath3508" class="cls-21" d="M221.51,244.75a5.89,5.89,0,1,1-5.88-5.89A5.88,5.88,0,0,1,221.51,244.75Z"/><path id="SvgjsPath3509" class="cls-24" d="M221.51,244.75a5.89,5.89,0,1,1-5.88-5.89A5.88,5.88,0,0,1,221.51,244.75Z"/><path id="SvgjsPath3510" class="cls-25" d="M207.42,251.62a2.45,2.45,0,1,1-.67,3.4,2.45,2.45,0,0,1,.67-3.4Z"/><path id="SvgjsPath3514" class="cls-26" d="M220.28,243.93c-.63.93-2.43.82-4-.24s-2.37-2.7-1.75-3.63h0c.63-.94,2.42-.83,4,.24s2.38,2.69,1.76,3.63Z"/><path id="SvgjsPath3518" class="cls-27" d="M227.42,241.43c-1.42,2.18-5.09,2.31-8.19.29s-4.46-5.42-3-7.61,5.09-2.31,8.19-.29,4.45,5.43,3,7.61Z"/></g></g></g><g id="svga-group-eyesfront-left"><path id="SvgjsPath3254" class="cls-6" d="M164.32,244.37c-.95,8.26,24.64,55,50.18,55s48.75-13.23,48.75-55c0-44.47-23.21-55-48.75-55S169.06,203.38,164.32,244.37ZM182,246.75l-.25-10.37c3.32-9.87,48.85-10.88,64.75,4.46,3.49,8.08-1,13.69-8.82,16.1-8.24-2-12.43,2.64-24.52,2.91-20.15.44-24.85-1.54-28-6.59A37.87,37.87,0,0,1,182,246.75Z"/><path id="SvgjsPath3255" class="cls-28" d="M179.25,240.15c.05,18.84,19.11,34,42.59,33.92s42.46-15.45,42.4-34.29-19.12-34-42.6-33.91S179.18,221.32,179.25,240.15Zm2.75,6.6-.25-10.37c3.32-9.87,48.85-10.88,64.75,4.46,3.49,8.08-1,13.69-8.82,16.1-8.24-2-12.43,2.64-24.52,2.91-20.15.44-24.85-1.54-28-6.59A37.87,37.87,0,0,1,182,246.75Z"/><path id="SvgjsPath3260" class="cls-29" d="M185.16,253.26a37.87,37.87,0,0,1-3.16-6.51l-.25-10.37c3.32-9.87,48.85-10.88,64.75,4.46,3.49,8.08-1,13.69-8.83,16.1-8.23-2-12.42,2.64-24.52,2.91C193,260.29,188.31,258.3,185.16,253.26Z"/><path id="SvgjsPath3264" class="cls-17" d="M253.66,237.1c-24-14.4-41.75-15.32-70.29-13.48C207.19,219.87,234.63,222.59,253.66,237.1Z"/><path id="SvgjsPath3265" d="M250.58,247.33c-8.1-20.79-64.86-20.91-68.58-10.45v9.73c-2.55-3.84-2.62-4.08-3.71-8.51L172.8,240s6.87-9.68,13.25-10.95C241.52,218,250.1,244,250.58,247.33Zm-8.72,10.34c-11.57-5-14.85.95-28.91,1.24-20,.42-23.92-1.92-27.81-6.19,2,5.23,3.43,7.71,27.18,7.57C225.76,260.2,233.11,254.65,241.86,257.67Z"/></g></g></g><g id="svga-group-eyes-right-move"><g id="svga-group-eyes-right"><g id="svga-group-eyesback-right"><path id="SvgjsPath3237" class="cls-30" d="M321.32,256.93c8.23-2,12.43,2.65,24.52,2.92,20.15.44,24.85-1.55,28-6.6a37.81,37.81,0,0,0,3.16-6.5l.25-10.37c-3.32-9.87-48.85-10.88-64.75,4.46a13.83,13.83,0,0,0-1.16,4.67,27.41,27.41,0,0,0,2.37,6.87A16.34,16.34,0,0,0,321.32,256.93Z"/></g><g id="svga-group-eyesiriswrapper-right"><g id="svga-group-eyesiriscontrol-right"><g id="svga-group-eyesiris-right"><path id="SvgjsPath3522" class="cls-21" d="M359.38,244.75a15,15,0,0,1-30,0h0a15,15,0,0,1,30,0Z"/><path id="SvgjsPath3523" class="cls-31" d="M342.7,229.91l-.18,0,.21,1C342.71,230.61,342.71,230.26,342.7,229.91Zm0,1c.17,4.93.46,9.32,1.29,10.91C344.46,240.12,343.71,235.78,342.73,231ZM344,241.86a1,1,0,0,1-.52.8,1.06,1.06,0,0,1-.91-.26,1,1,0,0,1-.09.94,1,1,0,0,1-.94.2,1.08,1.08,0,0,1,.37.88c-.07.26-.33.46-.73.61.39.15.66.35.72.61a1,1,0,0,1-.36.88,1.05,1.05,0,0,1,.93.2,1.09,1.09,0,0,1,.08.95,1,1,0,0,1,.92-.25c.25.1.41.38.51.8.2-.38.43-.62.7-.65a1,1,0,0,1,.82.47c0-.43.09-.75.32-.9a.62.62,0,1,0,.81-.91c.13-.24.43-.36.86-.41-.35-.25-.57-.5-.56-.77s.21-.53.57-.77a1,1,0,0,1-.86-.42,1.09,1.09,0,0,1,.14-.94,1.06,1.06,0,0,1-.95,0,1,1,0,0,1-.31-.9c-.28.32-.56.5-.82.46S344.22,242.24,344,241.86Zm1.52.19c1.2-1.34,2.55-5.53,3.92-10.26C347.33,236.23,345.55,240.25,345.54,242.05Zm3.92-10.26c.15-.31.31-.62.45-.93l-.16-.06C349.65,231.13,349.56,231.46,349.46,231.79Zm-2.65,11.13c1.68-.63,4.83-3.71,8.24-7.26C351.1,238.6,347.64,241.33,346.81,242.92Zm8.24-7.26.76-.56-.1-.13Zm-7.54,8.62c1.78.22,6-1,10.68-2.6C353.32,242.45,349,243.26,347.51,244.28Zm10.68-2.6.84-.13,0-.14Zm-10.68,4.13c1.48,1,5.79,1.87,10.65,2.66C353.5,246.89,349.29,245.6,347.51,245.81Zm10.66,2.66.71.25,0-.13Zm-11.38-1.3c.83,1.59,4.27,4.35,8.2,7.31C351.6,250.91,348.47,247.81,346.79,247.17Zm8.21,7.31.44.47a.6.6,0,0,1,.08-.08ZM345.53,248c0,1.8,1.75,5.83,3.86,10.28C348.05,253.58,346.72,249.38,345.53,248Zm3.86,10.28c.06.19.11.38.16.58l.1,0C349.57,258.68,349.48,258.5,349.39,258.32ZM344,248.22c-.84,1.59-1.15,6-1.35,10.9C343.66,254.3,344.43,250,344,248.22Zm-1.35,10.9c0,.19-.08.38-.12.57h.1C342.63,259.51,342.64,259.31,342.65,259.12Zm-.08-11.45c-1.49,1-3.8,4.76-6.27,9C339.44,252.89,342.14,249.41,342.57,247.67Zm-6.27,9c-.13.16-.26.33-.4.49l.09.06C336.1,257.06,336.2,256.87,336.3,256.69Zm5.26-10.17c-1.79.21-5.58,2.45-9.74,5.07C336.36,249.69,340.36,247.87,341.56,246.52Zm-9.74,5.08-.66.27a.21.21,0,0,0,.06.1ZM341.2,245c-1.68-.64-6.08-.42-11,0C335.12,245.42,339.51,245.66,341.2,245Zm-11,0-.81-.07v.14Zm11.35-1.46c-1.18-1.34-5.17-3.19-9.7-5.12C336,241.07,339.78,243.33,341.56,243.54Zm-9.7-5.12-.79-.51a.61.61,0,0,1-.07.14Zm10.72,4c-.42-1.75-3.1-5.24-6.21-9.06C338.81,237.62,341.11,241.37,342.58,242.4Zm-6.21-9.06-.49-.87a.71.71,0,0,0-.14.1C336,232.82,336.17,233.08,336.37,233.34Z"/><path id="SvgjsPath3527" class="cls-32" d="M346.59,230l-.17,0c0,.34,0,.69-.07,1Zm-.24,1c-1.11,4.8-2,9.12-1.57,10.87C345.65,240.27,346.05,235.89,346.35,231Zm-1.57,10.87c-.21.38-.44.61-.71.64a1.08,1.08,0,0,1-.82-.49,1,1,0,0,1-.33.89.62.62,0,1,0-.83.89,1,1,0,0,1-.86.4c.34.25.55.51.54.78s-.22.52-.57.75a1,1,0,0,1,.84.44,1.07,1.07,0,0,1-.16.94,1,1,0,0,1,.95,0,1,1,0,0,1,.28.91c.3-.31.58-.49.85-.45s.48.28.67.67c.12-.42.28-.7.54-.79a.62.62,0,1,0,1-.66.62.62,0,1,0,.59-1.07c.07-.26.34-.45.75-.59-.4-.16-.66-.37-.72-.63a.62.62,0,1,0-.54-1.09,1.07,1.07,0,0,1-.07-1,1,1,0,0,1-.92.23C345,242.55,344.87,242.26,344.78,241.84Zm1.42.58c1.5-1,3.89-4.68,6.44-8.89C349.43,237.26,346.67,240.68,346.2,242.42Zm6.44-8.9c.23-.25.45-.51.68-.77l-.14-.11C353,232.94,352.82,233.24,352.64,233.52Zm-5.45,10.07c1.79-.17,5.62-2.33,9.84-4.88C352.45,240.53,348.41,242.27,347.19,243.59Zm9.84-4.88.89-.35a1,1,0,0,1-.07-.15C357.58,238.38,357.31,238.55,357,238.71Zm-9.51,6.38c1.67.67,6.07.54,11,.25C353.61,244.82,349.22,244.49,347.52,245.09Zm11,.25.85.09v-.14Zm-11.39,1.23c1.16,1.38,5.12,3.3,9.61,5.32C352.63,249.15,348.9,246.82,347.12,246.57Zm9.61,5.32.62.42a.6.6,0,0,0,.06-.11Zm-10.65-4.2c.38,1.76,3,5.3,6,9.19C349.75,252.54,347.54,248.74,346.08,247.69Zm6,9.18c.11.19.21.38.31.57l.09-.06Zm-7.48-8.67c-.47,1.74.19,6.09,1.08,10.94C345.63,254.21,345.44,249.81,344.63,248.2Zm1.07,10.94c0,.19,0,.39,0,.59h.1C345.78,259.53,345.74,259.33,345.7,259.14ZM343.11,248c-1.22,1.32-2.66,5.47-4.13,10.18C341.21,253.76,343.08,249.78,343.11,248ZM339,258.16c-.09.17-.17.35-.26.52l.09,0C338.87,258.54,338.93,258.34,339,258.16Zm2.9-11.08c-1.71.6-4.91,3.62-8.4,7.1C337.5,251.32,341,248.65,341.88,247.08Zm-8.4,7.1-.51.36.07.08Zm7.71-8.47c-1.78-.26-6,.92-10.72,2.38C335.35,247.42,339.69,246.7,341.19,245.71Zm-10.72,2.38-.71.1a.36.36,0,0,0,0,.11Zm10.76-3.91c-1.46-1.06-5.76-2-10.61-2.88C335.26,243,339.44,244.35,341.23,244.18Zm-10.61-2.88-.76-.28s0,.1,0,.14ZM342,242.83c-.79-1.6-4.17-4.42-8.05-7.46C337.24,239,340.31,242.17,342,242.83Zm-8.05-7.46-.63-.69-.1.12Zm9.33,6.62c.05-1.79-1.64-5.86-3.66-10.35C340.84,236.4,342.09,240.62,343.25,242Zm-3.66-10.35-.25-1-.16.05Z"/><path id="SvgjsPath3531" class="cls-21" d="M350.26,244.75a5.89,5.89,0,1,1-5.88-5.89A5.88,5.88,0,0,1,350.26,244.75Z"/><path id="SvgjsPath3532" class="cls-24" d="M350.26,244.75a5.89,5.89,0,1,1-5.88-5.89A5.88,5.88,0,0,1,350.26,244.75Z"/><path id="SvgjsPath3533" class="cls-33" d="M336.17,251.62a2.45,2.45,0,1,1-.67,3.4,2.45,2.45,0,0,1,.67-3.4Z"/><path id="SvgjsPath3537" class="cls-34" d="M349,243.93c-.62.93-2.42.82-4-.24s-2.37-2.7-1.75-3.63h0c.63-.94,2.43-.83,4,.24s2.37,2.69,1.74,3.63Z"/><path id="SvgjsPath3541" class="cls-35" d="M356.17,241.43c-1.43,2.18-5.09,2.31-8.19.29s-4.46-5.42-3-7.61,5.09-2.31,8.19-.29,4.45,5.43,3,7.61Z"/></g></g></g><g id="svga-group-eyesfront-right"><path id="SvgjsPath3275" class="cls-6" d="M344.5,189.37c-25.54,0-48.75,10.53-48.75,55,0,41.78,23.21,55,48.75,55s49.73-45.08,50.18-55C396.54,203.15,370.05,189.37,344.5,189.37Zm29.34,63.89c-3.15,5.05-7.86,7-28,6.59-12.1-.27-16.29-4.87-24.53-2.91-7.8-2.41-12.31-8-8.82-16.1,15.9-15.34,61.43-14.33,64.75-4.46L377,246.75A37.87,37.87,0,0,1,373.84,253.26Z"/><path id="SvgjsPath3276" class="cls-36" d="M337.36,205.87c-23.48-.1-42.54,15.08-42.6,33.91s18.93,34.18,42.4,34.29S379.7,259,379.75,240.15,360.84,206,337.36,205.87Zm36.48,47.39c-3.15,5.05-7.86,7-28,6.59-12.1-.27-16.29-4.87-24.53-2.91-7.8-2.41-12.31-8-8.82-16.1,15.9-15.34,61.43-14.33,64.75-4.46L377,246.75A37.87,37.87,0,0,1,373.84,253.26Z"/><path id="SvgjsPath3281" class="cls-37" d="M373.84,253.26a37.87,37.87,0,0,0,3.16-6.51l.25-10.37c-3.32-9.87-48.85-10.88-64.75,4.46-3.49,8.08,1,13.69,8.83,16.1,8.23-2,12.42,2.64,24.52,2.91C366,260.29,370.69,258.3,373.84,253.26Z"/><path id="SvgjsPath3285" class="cls-17" d="M305.34,237.1c24-14.4,41.75-15.32,70.29-13.48C351.81,219.87,324.37,222.59,305.34,237.1Z"/><path id="SvgjsPath3286" d="M373,229c6.38,1.27,13.25,11,13.25,11l-5.49-1.87c-1.09,4.43-1.16,4.66-3.71,8.51v-9.74c-3.71-10.45-60.47-10.33-68.57,10.46C308.9,244,317.49,218,373,229Zm-26.28,31.28c23.75.14,25.16-2.34,27.19-7.57-3.89,4.28-7.8,6.61-27.81,6.19-14.06-.29-17.35-6.19-28.91-1.24C325.89,254.65,333.24,260.2,346.67,260.29Z"/></g></g></g><g id="svga-group-facehighlight-single"><path id="SvgjsPath2906" class="cls-38" d="M382.5,319.06A102.5,102.5,0,1,1,279.84,216.62,102.45,102.45,0,0,1,382.5,319.06Z"/><path id="SvgjsPath2910" class="cls-39" d="M373.75,169.12A93.75,93.75,0,1,1,280,75.37,93.75,93.75,0,0,1,373.75,169.12Z"/></g><g id="svga-group-eyebrows-left-move"><g id="svga-group-eyebrows-left-rotate"><g id="svga-group-eyebrows-left"><path id="SvgjsPath3571" class="cls-40" d="M170,215.22c36.81-7.57,82.22,6.93,83.34-1.62.41-3.13-2.23-4.32-4.39-4.49C211.73,206,181.25,205.51,170,215.22Z"/></g></g></g><g id="svga-group-eyebrows-right-move"><g id="svga-group-eyebrows-right-rotate"><g id="svga-group-eyebrows-right"><path id="SvgjsPath3572" class="cls-40" d="M390,215.22c-36.81-7.57-82.22,6.93-83.34-1.62-.41-3.13,2.23-4.32,4.39-4.49C348.27,206,378.75,205.51,390,215.22Z"/></g></g></g><g id="svga-group-nose-single-move"><g id="svga-group-nose-single"><path id="SvgjsPath3148" class="cls-8" d="M304.74,331.19a22.28,22.28,0,0,0,1-4c.08-.49-.57-2.32-.63-1.74-.25,2.35-1.53,5.66-4,6.38-2.84.82-4.46-.14-4.72-2.93s.74-6.55-.27-9.16a8.9,8.9,0,0,0-3.66-4c1.15,5.1,2.06,11.76-2.82,15.41a2.32,2.32,0,0,0,1.17.83,4.92,4.92,0,0,0-1.17.33c-1.93.88-9,2.54-11,1.64a12.06,12.06,0,0,0-2.9-.51c-.9-.79-2.56-2.84-3.33-3.32a10.62,10.62,0,0,1-4.82-8.68,18.69,18.69,0,0,1,12.16-18.82c-9-2.51-10.16,12.16-16,15.43-3.51,2-6.85,3.7-6.79,8.07a16.59,16.59,0,0,0,.85,5.31c-1.06-1.48-1.75-2.81-1.85-1.63-.86,9.94,8.8,7.21,12.6,7.89a93.37,93.37,0,0,0,11.15,1.41c2.84.05,7.15-.94,9.95-1.41s7.47.09,11-1.47c2.06-.93,5-1.53,5-5.53l-1,.81Z"/><path id="SvgjsPath3149" class="cls-17" d="M256.6,324.93a8.06,8.06,0,0,1,1.83-3.31,10.58,10.58,0,0,0-.38,9.49c1.74,3.5,4.85,2.76,7.83,1.41s3-2.34,6.06-1.31c2.41.79,4.34,2,7,2,2.83,0,4.95-1.18,7.58-2,3.19-.95,5.89-.4,8.9.95,2.82,1.27,6.06,2.87,8.25-.29,1.93-2.87,1.72-7.31,0-10.23,3.78,3.85,2.86,14.84-4.36,13.46-1-.2-2.75-1.41-3.63-1.18-1.6.44-3.61,0-5.23-.13a23.44,23.44,0,0,0-8.28.43,13.86,13.86,0,0,1-3.27.39c-1.31,0-2.64-.67-3.89-.59-3.5.21-5-.54-8.47-.31-3,.19-4.89,2.82-7.86.44-2.62-2.2-3-6.09-2.11-9.2C256.8,324.32,256.24,326.16,256.6,324.93ZM283,303.28a10.38,10.38,0,0,1,3.82,1.71c-3.47-5.53-12.32-3.52-15.84.86,3.6-1.91,7.89-3.49,12-2.57Z"/><path id="SvgjsPath3150" class="cls-7" d="M262.7,328.32c-.54-4,1-7.63-2.49-4.93C258,325.06,263.54,334.54,262.7,328.32Z"/></g></g><g id="svga-group-hair-front"><path id="SvgjsPath3575" class="cls-5" d="M144.44,259.9c-7.49-6.25-16.87-22.34-21-44.9-.89-4.62-1.53-9.38-2.21-14.41-2.82-21.11-8.88-45.72-4.69-70.93,5-30.84,28.18-64.23,57.59-83.09C219.56,17.14,334.51,4,358.47,42.72c13.89-.5,28.89,3.13,39.24,11.18,34.28,25.71,47.53,113,38,156.4-6.32,29.62-8,37.38-20.66,49,4.53-135.81-2.47-99.17-8.26-135.64-6.79-5-9.32-2.92-19.78-8.85-20.79-15.36-19.78-21.51-29.2-32.25-8.39,9.93-20.46,18.66-29.77,22.7a121.67,121.67,0,0,0,5.7-11l-1.11-.93C324.84,99,309,107,299.32,107.89c5.22-6.42,4.61-5.61,6.69-9.52a58.48,58.48,0,0,1-26.51,9c9.84-4.86,14.25-8.18,21.88-14.54l-.7-1.3c-53,16.1-65.54,19.74-104.39,26.63-32.53,4.07-20.62.63-32.42.63-19,0-22,57-21.17,76C144.81,247.82,142.09,237.48,144.44,259.9Z"/><path id="SvgjsPath3576" class="cls-41" d="M435.74,210.3c-6.32,29.62-8,37.38-20.66,49,4.53-135.81-2.47-99.17-8.26-135.64-6.79-5-9.32-2.92-19.78-8.85-20.79-15.36-19.78-21.51-29.2-32.25-8.39,9.93-20.46,18.66-29.77,22.7a121.67,121.67,0,0,0,5.7-11l-1.11-.93C324.84,99,309,107,299.32,107.89c5.22-6.42,4.61-5.61,6.69-9.52a58.48,58.48,0,0,1-26.51,9c9.84-4.86,14.25-8.18,21.88-14.54l-.7-1.3c-53,16.1-65.54,19.74-104.39,26.63-32.53,4.07-20.62.63-32.42.63-19,0-22,57-21.17,76,2.11,53.1-.61,42.76,1.74,65.19-7.49-6.26-16.87-22.35-21-44.91-.89-4.62-1.53-9.37-2.2-14.41-2.83-21.11-8.89-45.72-4.7-70.93,4-24.36,34.32-60.2,55.06-79.32-63.75,59.37-45,125.63-34.37,178.75-3.13-46.88-12.18-122.47,30.32-125C225,104.12,289.67,96,329.67,56c-2.5,17.5-4.67,20.66-17.17,33.16,10-7.5,22.5-12.5,27.5-25-2.5,10-2.5,17.5-10,25,7.5-5,15-12.5,22.5-20,0,7.5-5,15-7.5,22.5,5-12.5,20-20,22.5-32.5-7.5,32.5,30.92,50,42.8,56.84,16.25,22.5,16.87,70,13.12,109.37,13.75-45,7.5-121.87-33.12-175C434.67,82.83,444,172.59,435.74,210.3ZM180.92,84.08c30.52-.89,52.91-5.84,85.63-24.37C235.08,73.5,215.17,80.08,180.92,84.08Zm83.13-10.62c16.15-6.7,27.39-21.24,45.62-25.63C292.87,53.67,281.18,68.3,264.05,73.46Zm-96.88,9.37c11.58-20.81,36.3-38,67.5-40.62C209.28,46.93,182.09,61.5,167.17,82.83Z"/><path id="SvgjsPath3577" class="cls-42" d="M246.55,34.12c32.71-14,62.49-12.56,93.75,5-32.81-14-57.89-11.33-57.89-11.33C276.44,28.22,266.9,28,246.55,34.12Zm128.75,20c10.34,4,14.66,10,20.95,18.78,9.22,14.89,11.8,21.33,17.16,36.22C408.2,87.7,396.51,59.85,375.3,54.08Zm-58.75-.62c-17.79,15-30.69,23.09-66.25,35C278.4,81.78,296.32,73.91,316.55,53.46Zm57.5,15.62c5.17,17.59,14.69,27.4,29.37,36.25C389.77,95.07,380.85,85.54,374.05,69.08Zm-197.5-9.37-3.22,2.38c-22.86,16.2-40.73,47.15-41.16,86.37C137.16,109.44,152.62,82,176.55,59.71ZM188.42,71c19.39-10.14,28.35-10.22,60.63-15.63C221.19,57.28,207.41,58.6,188.42,71ZM241,81.53c-11.41,5.73-38.19,12.14-38.19,11.85l-25.68,5.7c6.31-.79,17.13-2.06,26.05-4,0,.33,22-5,28.45-8.3,7.09-3.35,4.68-2,11.76-6.48Z"/><path id="SvgjsPath3578" class="cls-43" d="M398.18,53.31C387.6,45.09,372.37,41.46,358.87,42,347.35,23.32,311,18,289,17.73c-33.26-.34-85.81,9.14-115.28,28.2-27.42,17.58-52.55,50.72-57.92,83.6-3.21,19.31-.45,39.31,2.82,58.45,1.6,9.25,2.43,18.58,4.08,27.15,4.74,25.57,15.74,41.57,22.72,46.43-2.66-24.64.25-12.5-1.92-66.88-1-23.32,3.26-76.78,21.22-75.15,12.21.87,2.54,3,31.75-.67,38.37-6.81,50.92-10.38,104.48-26.65-8.39,7-12.76,10.17-24,15.55,0,0,0,0,0,0-.35.17-.72.35-1.07.5,9.3-.06,20.86-3.26,28.25-7.8-1,1.9-4.08,5.37-6.35,8.25,9.61,0,26.85-8.6,35.4-14.78a100.84,100.84,0,0,1-7,13c2.85-1.43,9.69-3.28,23.33-14.83a74.58,74.58,0,0,0,8.45-8.42c8.37,9.54,7.87,16.29,28.82,31.75,10.4,5.9,13.21,4.06,19.45,8.62,5.52,36.12,12.84-2,8.15,137,14-12.4,15.69-20.06,22.2-50.57C445.74,168.13,433.12,79.53,398.18,53.31Zm34.19,156.62c-5.54,30.72-6,35.9-17.2,48.05,2-27,3.83-51.14,3.3-78.35-1.11-40.15-6.45-32.62-10.25-56.8-7.2-5-10.68-4.13-17.3-7.12a31.25,31.25,0,0,1-3.18-1.7c-21-14.56-21-21.51-29.57-30.68A43.25,43.25,0,0,0,363.39,76c-3.77,5.66-19.94,20.6-35.27,29.08a70.5,70.5,0,0,0,6.1-12,70.66,70.66,0,0,0,9.8-8.38c-8.55,7.1-30.56,19.9-44.38,22.68.44-.45,4.69-4.57,6.29-7.69,3.39-1.35,12.54-6.94,15.76-10.5C305.93,99.72,288,106,281.75,107.06c7.66-2.88,17.6-11.83,22.7-15.9,4.92-3.94,5.88-5.52,11-10.7-3.36,2.34-8.6,7.48-15.14,10.24-3.86,1.63-109.72,31.24-128.13,26.43-3.7-.92-7.87-2-11.55-1-29.5,12.69-18.65,94.08-18.25,119.07.34,21.06,1.85,24.73,1.85,24.73C124.84,241.56,124,201.07,122,187c-2.57-18.64-4.81-38.43-1.38-56.93,5.6-31.6,29.78-63.51,55.65-80.15,38.68-25.1,154-46.33,182.6-7.07C429.88,42.86,439.85,159.8,432.37,209.93Z"/></g></g></g></g></g></g></svg>